<?xml version="1.0" encoding="UTF-8" standalone="no"?>
<svg
   xmlns:dc="http://purl.org/dc/elements/1.1/"
   xmlns:cc="http://creativecommons.org/ns#"
   xmlns:rdf="http://www.w3.org/1999/02/22-rdf-syntax-ns#"
   xmlns:svg="http://www.w3.org/2000/svg"
   xmlns="http://www.w3.org/2000/svg"
   viewBox="0 0 1706.6667 1365.3333"
   xml:space="preserve"
   id="svg2"
   version="1.1"><metadata
     id="metadata8"><rdf:RDF><cc:Work
         rdf:about=""><dc:format>image/svg+xml</dc:format><dc:type
           rdf:resource="http://purl.org/dc/dcmitype/StillImage" /></cc:Work></rdf:RDF></metadata><defs
     id="defs6"><clipPath
       id="clipPath18"
       clipPathUnits="userSpaceOnUse"><path
         id="path16"
         d="m 571.131,429.625 h 292 v 192 h -292 z" /></clipPath><clipPath
       id="clipPath30"
       clipPathUnits="userSpaceOnUse"><path
         id="path28"
         d="M 0,1024 H 1280 V 0 H 0 Z" /></clipPath></defs><g
     transform="matrix(1.3333333,0,0,-1.3333333,0,1365.3333)"
     id="g10"><g
       id="g12"><g
         clip-path="url(#clipPath18)"
         id="g14"><g
           transform="translate(860.7187,616.0972)"
           id="g20"><path
             id="path22"
             style="fill:#cccccc;fill-opacity:1;fill-rule:nonzero;stroke:none"
             d="m 0,0 c -2.147,-11.42 -4.211,-22.459 -6.299,-33.493 -7.513,-39.697 -15.034,-79.392 -22.552,-119.089 -1.355,-7.158 -2.682,-14.322 -4.072,-21.473 -0.713,-3.664 -0.779,-3.751 -4.573,-3.487 -16.227,1.132 -32.447,2.349 -48.674,3.483 -16.061,1.123 -32.129,2.172 -48.192,3.273 -17.719,1.215 -35.435,2.466 -53.154,3.677 -16.394,1.121 -32.793,2.196 -49.188,3.317 -12.419,0.849 -24.84,1.681 -37.251,2.639 -3.982,0.307 -4.066,0.486 -3.843,4.461 1.122,20.02 2.322,40.034 3.449,60.054 0.83,14.725 1.597,29.455 2.379,44.183 0.413,7.778 0.767,15.559 1.215,23.335 0.227,3.933 0.421,4.087 4.369,4.453 26.108,2.416 52.221,4.782 78.325,7.238 22.8,2.145 45.588,4.421 68.387,6.573 19.331,1.825 38.673,3.522 58.004,5.336 19.166,1.8 38.323,3.684 57.487,5.504 C -2.922,0.104 -1.639,0 0,0" /></g></g></g><g
       id="g24"><g
         clip-path="url(#clipPath30)"
         id="g26"><g
           transform="translate(602.9531,440.4912)"
           id="g32"><path
             id="path34"
             style="fill:#ff0000;fill-opacity:1;fill-rule:nonzero;stroke:none"
             d="m 0,0 c -11.293,59.342 -22.537,118.422 -33.872,177.983 8.655,-0.762 16.88,-1.448 25.097,-2.216 30.889,-2.89 61.777,-5.793 92.664,-8.714 33.529,-3.171 67.054,-6.385 100.585,-9.547 15.856,-1.495 31.712,-3.037 47.589,-4.277 3.954,-0.308 5.791,-1.199 6.011,-5.662 1.931,-39.051 4.105,-78.09 6.223,-117.133 0.233,-4.286 0.574,-8.566 0.919,-13.645 C 163.45,11.19 81.94,5.61 0,0" /></g><g
           transform="translate(933.5049,565.4897)"
           id="g36"><path
             id="path38"
             style="fill:#000000;fill-opacity:1;fill-rule:nonzero;stroke:none"
             d="m 0,0 c -5.544,2.985 -14.554,6.658 -24.256,6.658 -10.394,0 -15.938,-5.281 -15.938,-12.168 0,-7.118 4.85,-10.792 19.634,-16.99 21.715,-8.955 31.879,-21.354 31.879,-39.033 0,-24.337 -18.48,-40.409 -50.59,-40.409 -14.09,0 -27.72,3.444 -36.267,8.495 l 6.468,24.568 c 6.699,-3.904 19.404,-8.496 30.03,-8.496 12.013,0 17.788,5.051 17.788,12.858 0,7.806 -4.39,11.939 -18.48,17.909 -24.025,9.643 -32.803,23.189 -32.803,37.194 0,22.96 18.48,40.41 47.125,40.41 13.167,0 24.486,-3.215 31.878,-7.118 z" /></g><g
           transform="translate(463.2197,594.3398)"
           id="g40"><path
             id="path42"
             style="fill:#000000;fill-opacity:1;fill-rule:nonzero;stroke:none"
             d="m 0,0 -29.106,-88.854 c -14.323,-41.329 -25.18,-63.83 -39.733,-78.294 -12.474,-11.939 -25.641,-16.532 -33.265,-17.909 l -8.546,28.7 c 5.544,1.607 12.011,5.281 18.018,9.414 11.319,8.036 17.094,21.123 17.094,23.648 0,1.378 -0.462,3.215 -1.386,5.74 L -120.122,0 h 37.423 l 18.942,-66.813 c 2.079,-7.807 4.389,-16.761 6.006,-23.878 h 0.693 c 1.386,6.887 3.465,15.842 5.313,23.878 L -35.575,0 Z" /></g><g
           transform="translate(515.1938,572.0688)"
           id="g44"><path
             id="path46"
             style="fill:#000000;fill-opacity:1;fill-rule:nonzero;stroke:none"
             d="m 0,0 c -18.942,0 -25.642,-22.042 -25.642,-41.558 0,-22.73 8.779,-41.557 25.411,-41.557 16.17,0 24.948,19.057 24.948,41.787 C 24.717,-21.353 17.556,0 0,0 m 59.368,-40.639 c 0,-48.675 -31.417,-67.502 -60.061,-67.502 -34.651,0 -59.599,24.337 -59.599,65.894 0,42.935 26.104,67.273 60.985,67.273 36.036,0 58.675,-26.863 58.675,-65.665" /></g><g
           transform="translate(698.7852,506.4814)"
           id="g48"><path
             id="path50"
             style="fill:#ffffff;fill-opacity:1;fill-rule:nonzero;stroke:none"
             d="m 0,0 c 0,-11.743 0.571,-21.593 0.953,-29.927 h -19.438 l -1.144,15.153 H -20.2 c -4.383,-7.198 -14.674,-17.236 -31.634,-17.236 -18.104,0 -33.921,11.175 -33.921,44.51 v 62.126 h 22.106 V 16.099 c 0,-17.994 5.145,-29.926 19.628,-29.926 10.1,0 21.916,7.955 21.916,23.676 V 74.437 H 0 Z" /></g><g
           transform="translate(806.4922,506.4814)"
           id="g52"><path
             id="path54"
             style="fill:#ffffff;fill-opacity:1;fill-rule:nonzero;stroke:none"
             d="m 0,0 c 0,-11.743 0.572,-21.593 0.953,-29.927 h -19.437 l -1.144,15.153 h -0.571 c -4.384,-7.198 -14.674,-17.236 -31.635,-17.236 -18.104,0 -33.921,11.175 -33.921,44.51 v 62.126 h 22.106 V 16.099 c 0,-17.994 5.145,-29.926 19.628,-29.926 10.1,0 21.916,7.955 21.916,23.676 V 74.437 H 0 Z" /></g><g
           transform="translate(506.52,412.334)"
           id="g56"><path
             id="path58"
             style="fill:#ff0000;fill-opacity:1;fill-rule:nonzero;stroke:none"
             d="m 0,0 c 0,-2.034 1.453,-3.951 3.661,-3.951 2.586,0 4.009,2.295 4.009,5.722 C 7.67,4.793 6.363,7.32 3.69,7.32 1.569,7.32 0,5.258 0,3.137 Z m 0.058,7.437 c 0.959,1.627 2.615,2.585 4.852,2.585 3.661,0 6.188,-3.224 6.188,-8.105 0,-5.84 -3.399,-8.57 -6.711,-8.57 -2.063,0 -3.661,0.842 -4.736,2.73 H -0.436 L -0.61,-6.334 h -2.876 c 0.058,1.075 0.116,2.818 0.116,4.271 v 19.03 H 0 v -9.53 z" /></g><g
           transform="translate(530.4321,419.0449)"
           id="g60"><path
             id="path62"
             style="fill:#ff0000;fill-opacity:1;fill-rule:nonzero;stroke:none"
             d="m 0,0 c -0.291,0.058 -0.61,0.087 -0.988,0.087 -2.266,0 -3.69,-1.859 -3.69,-4.649 v -8.483 h -3.37 v 11.127 c 0,1.859 -0.029,3.399 -0.116,4.881 h 2.935 l 0.116,-2.934 h 0.116 c 0.726,2.034 2.411,3.283 4.154,3.283 0.32,0 0.552,-0.029 0.843,-0.087 z" /></g><path
           id="path64"
           style="fill:#ff0000;fill-opacity:1;fill-rule:nonzero;stroke:none"
           d="m 537.871,406 h -3.37 v 16.037 h 3.37 z m -1.685,18.478 c -1.163,0 -1.947,0.872 -1.947,1.946 0,1.133 0.813,1.975 1.975,1.975 1.162,0 1.947,-0.842 1.947,-1.975 0,-1.074 -0.755,-1.946 -1.975,-1.946" /><g
           transform="translate(556.8716,406)"
           id="g66"><path
             id="path68"
             style="fill:#ff0000;fill-opacity:1;fill-rule:nonzero;stroke:none"
             d="m 0,0 h -3.37 v 9.384 c 0,2.266 -0.755,4.183 -3.05,4.183 -1.657,0 -3.429,-1.365 -3.429,-3.921 V 0 h -3.37 v 11.505 c 0,1.772 -0.058,3.138 -0.116,4.503 h 2.934 l 0.174,-2.382 h 0.088 c 0.755,1.365 2.44,2.73 4.851,2.73 C -2.789,16.356 0,14.729 0,9.791 Z" /></g><g
           transform="translate(572.4165,415.8203)"
           id="g70"><path
             id="path72"
             style="fill:#ff0000;fill-opacity:1;fill-rule:nonzero;stroke:none"
             d="m 0,0 c 0,2.12 -1.395,3.863 -3.458,3.863 -2.324,0 -3.951,-2.208 -3.951,-5.635 0,-3.138 1.424,-5.375 3.923,-5.375 1.743,0 3.486,1.336 3.486,4.008 z M 3.515,6.187 C 3.428,5.055 3.37,3.719 3.37,1.568 v -9.123 c 0,-3.195 -0.262,-9.092 -7.844,-9.092 -1.859,0 -3.806,0.406 -5.055,1.162 l 0.755,2.614 c 0.988,-0.581 2.527,-1.133 4.329,-1.133 2.614,0 4.474,1.453 4.474,5.084 v 1.54 h -0.058 c -0.814,-1.365 -2.383,-2.353 -4.445,-2.353 -3.777,0 -6.363,3.34 -6.363,7.815 0,5.433 3.283,8.454 6.77,8.454 2.382,0 3.718,-1.22 4.386,-2.498 h 0.058 l 0.146,2.149 z" /></g><path
           id="path74"
           style="fill:#ff0000;fill-opacity:1;fill-rule:nonzero;stroke:none"
           d="m 584.911,406 h -3.37 v 16.037 h 3.37 z m -1.685,18.478 c -1.163,0 -1.947,0.872 -1.947,1.946 0,1.133 0.814,1.975 1.976,1.975 1.162,0 1.946,-0.842 1.946,-1.975 0,-1.074 -0.755,-1.946 -1.975,-1.946" /><g
           transform="translate(603.9121,406)"
           id="g76"><path
             id="path78"
             style="fill:#ff0000;fill-opacity:1;fill-rule:nonzero;stroke:none"
             d="m 0,0 h -3.37 v 9.384 c 0,2.266 -0.755,4.183 -3.051,4.183 -1.656,0 -3.428,-1.365 -3.428,-3.921 V 0 h -3.37 v 11.505 c 0,1.772 -0.058,3.138 -0.116,4.503 h 2.934 l 0.174,-2.382 h 0.087 c 0.756,1.365 2.441,2.73 4.852,2.73 C -2.789,16.356 0,14.729 0,9.791 Z" /></g><g
           transform="translate(619.457,415.8203)"
           id="g80"><path
             id="path82"
             style="fill:#ff0000;fill-opacity:1;fill-rule:nonzero;stroke:none"
             d="m 0,0 c 0,2.12 -1.395,3.863 -3.458,3.863 -2.324,0 -3.951,-2.208 -3.951,-5.635 0,-3.138 1.424,-5.375 3.923,-5.375 1.743,0 3.486,1.336 3.486,4.008 z M 3.515,6.187 C 3.428,5.055 3.37,3.719 3.37,1.568 v -9.123 c 0,-3.195 -0.262,-9.092 -7.844,-9.092 -1.859,0 -3.806,0.406 -5.055,1.162 l 0.755,2.614 c 0.988,-0.581 2.527,-1.133 4.329,-1.133 2.614,0 4.474,1.453 4.474,5.084 v 1.54 h -0.058 c -0.814,-1.365 -2.383,-2.353 -4.445,-2.353 -3.777,0 -6.363,3.34 -6.363,7.815 0,5.433 3.283,8.454 6.77,8.454 2.382,0 3.718,-1.22 4.386,-2.498 h 0.058 l 0.146,2.149 z" /></g><g
           transform="translate(637.2104,424.9131)"
           id="g84"><path
             id="path86"
             style="fill:#ff0000;fill-opacity:1;fill-rule:nonzero;stroke:none"
             d="M 0,0 3.341,1.046 V -2.905 H 7.147 V -5.433 H 3.341 v -8.105 c 0,-1.976 0.61,-2.935 2.034,-2.935 0.667,0 1.075,0.087 1.481,0.203 l 0.116,-2.584 c -0.581,-0.233 -1.481,-0.378 -2.614,-0.378 -1.337,0 -2.47,0.435 -3.167,1.219 C 0.377,-17.141 0,-15.805 0,-13.713 v 8.28 h -2.266 v 2.528 H 0 Z" /></g><g
           transform="translate(658.042,415.6455)"
           id="g88"><path
             id="path90"
             style="fill:#ff0000;fill-opacity:1;fill-rule:nonzero;stroke:none"
             d="m 0,0 c 0.029,1.917 -0.756,4.3 -3.341,4.3 -2.47,0 -3.515,-2.441 -3.69,-4.3 z m 2.382,-9.007 c -1.133,-0.522 -2.905,-0.958 -5.084,-0.958 -4.822,0 -7.611,3.225 -7.611,8.106 0,4.764 2.672,8.57 7.205,8.57 4.503,0 6.303,-3.747 6.303,-7.698 0,-0.553 -0.028,-1.018 -0.087,-1.424 H -7.06 c 0.087,-3.603 2.325,-4.969 4.852,-4.969 1.772,0 2.992,0.32 4.038,0.756 z" /></g><g
           transform="translate(676.7246,406.4941)"
           id="g92"><path
             id="path94"
             style="fill:#ff0000;fill-opacity:1;fill-rule:nonzero;stroke:none"
             d="m 0,0 c -0.756,-0.349 -2.267,-0.813 -4.126,-0.813 -4.619,0 -7.641,3.167 -7.641,8.163 0,4.852 3.138,8.512 8.281,8.512 1.539,0 2.876,-0.378 3.573,-0.725 l -0.668,-2.586 c -0.581,0.29 -1.511,0.638 -2.877,0.638 -3.138,0 -4.881,-2.556 -4.881,-5.694 0,-3.515 2.064,-5.606 4.853,-5.606 1.336,0 2.265,0.319 3.021,0.638 z" /></g><g
           transform="translate(694.4189,406)"
           id="g96"><path
             id="path98"
             style="fill:#ff0000;fill-opacity:1;fill-rule:nonzero;stroke:none"
             d="m 0,0 h -3.37 v 9.355 c 0,2.295 -0.785,4.212 -3.051,4.212 -1.656,0 -3.429,-1.365 -3.429,-3.776 V 0 h -3.37 v 23.301 h 3.37 v -9.472 h 0.059 c 1.046,1.656 2.847,2.527 4.59,2.527 C -2.789,16.356 0,14.729 0,9.675 Z" /></g><g
           transform="translate(713.333,406)"
           id="g100"><path
             id="path102"
             style="fill:#ff0000;fill-opacity:1;fill-rule:nonzero;stroke:none"
             d="m 0,0 h -3.37 v 9.384 c 0,2.266 -0.755,4.183 -3.05,4.183 -1.656,0 -3.429,-1.365 -3.429,-3.921 V 0 h -3.37 v 11.505 c 0,1.772 -0.057,3.138 -0.116,4.503 h 2.935 l 0.173,-2.382 h 0.088 c 0.755,1.365 2.441,2.73 4.852,2.73 C -2.789,16.356 0,14.729 0,9.791 Z" /></g><g
           transform="translate(725.4502,419.8291)"
           id="g104"><path
             id="path106"
             style="fill:#ff0000;fill-opacity:1;fill-rule:nonzero;stroke:none"
             d="m 0,0 c -2.876,0 -3.98,-3.079 -3.98,-5.84 0,-3.138 1.481,-5.781 3.951,-5.781 2.44,0 3.951,2.643 3.951,5.84 C 3.922,-3.138 2.818,0 0,0 m 7.379,-5.694 c 0,-5.985 -3.893,-8.454 -7.495,-8.454 -4.155,0 -7.321,3.049 -7.321,8.221 0,5.405 3.311,8.454 7.553,8.454 4.387,0 7.263,-3.311 7.263,-8.221" /></g><path
           id="path108"
           style="fill:#ff0000;fill-opacity:1;fill-rule:nonzero;stroke:none"
           d="m 740.995,406 h -3.37 v 23.301 h 3.37 z" /><g
           transform="translate(753.1689,419.8291)"
           id="g110"><path
             id="path112"
             style="fill:#ff0000;fill-opacity:1;fill-rule:nonzero;stroke:none"
             d="m 0,0 c -2.877,0 -3.98,-3.079 -3.98,-5.84 0,-3.138 1.481,-5.781 3.951,-5.781 2.44,0 3.951,2.643 3.951,5.84 C 3.922,-3.138 2.817,0 0,0 m 7.379,-5.694 c 0,-5.985 -3.893,-8.454 -7.495,-8.454 -4.155,0 -7.321,3.049 -7.321,8.221 0,5.405 3.311,8.454 7.553,8.454 4.387,0 7.263,-3.311 7.263,-8.221" /></g><g
           transform="translate(775.1924,415.8203)"
           id="g114"><path
             id="path116"
             style="fill:#ff0000;fill-opacity:1;fill-rule:nonzero;stroke:none"
             d="m 0,0 c 0,2.12 -1.395,3.863 -3.458,3.863 -2.324,0 -3.951,-2.208 -3.951,-5.635 0,-3.138 1.424,-5.375 3.923,-5.375 1.743,0 3.486,1.336 3.486,4.008 z M 3.515,6.187 C 3.428,5.055 3.37,3.719 3.37,1.568 v -9.123 c 0,-3.195 -0.262,-9.092 -7.845,-9.092 -1.859,0 -3.805,0.406 -5.054,1.162 l 0.755,2.614 c 0.988,-0.581 2.527,-1.133 4.329,-1.133 2.614,0 4.473,1.453 4.473,5.084 v 1.54 h -0.057 c -0.814,-1.365 -2.383,-2.353 -4.446,-2.353 -3.776,0 -6.362,3.34 -6.362,7.815 0,5.433 3.283,8.454 6.77,8.454 2.381,0 3.718,-1.22 4.386,-2.498 h 0.058 l 0.145,2.149 z" /></g><g
           transform="translate(796.9834,422.0078)"
           id="g118"><path
             id="path120"
             style="fill:#ff0000;fill-opacity:1;fill-rule:nonzero;stroke:none"
             d="m 0,0 -3.864,-11.098 c -1.889,-5.258 -3.225,-8.222 -5.143,-10.082 -1.452,-1.336 -2.933,-1.887 -3.719,-2.062 l -0.871,2.847 c 3.487,1.249 4.736,4.503 4.736,4.939 0,0.175 -0.03,0.378 -0.174,0.697 L -14.526,0 h 3.689 l 2.905,-9.006 c 0.32,-1.046 0.64,-2.266 0.872,-3.196 h 0.087 c 0.233,0.93 0.552,2.121 0.843,3.196 L -3.545,0 Z" /></g><g
           transform="translate(809.4482,424.9131)"
           id="g122"><path
             id="path124"
             style="fill:#ff0000;fill-opacity:1;fill-rule:nonzero;stroke:none"
             d="M 0,0 3.342,1.046 V -2.905 H 7.147 V -5.433 H 3.342 v -8.105 c 0,-1.976 0.609,-2.935 2.033,-2.935 0.668,0 1.075,0.087 1.481,0.203 l 0.117,-2.584 c -0.581,-0.233 -1.482,-0.378 -2.615,-0.378 -1.337,0 -2.469,0.435 -3.167,1.219 C 0.378,-17.141 0,-15.805 0,-13.713 v 8.28 h -2.266 v 2.528 H 0 Z" /></g><g
           transform="translate(827.375,419.8291)"
           id="g126"><path
             id="path128"
             style="fill:#ff0000;fill-opacity:1;fill-rule:nonzero;stroke:none"
             d="m 0,0 c -2.876,0 -3.98,-3.079 -3.98,-5.84 0,-3.138 1.481,-5.781 3.951,-5.781 2.44,0 3.951,2.643 3.951,5.84 C 3.922,-3.138 2.818,0 0,0 m 7.379,-5.694 c 0,-5.985 -3.893,-8.454 -7.495,-8.454 -4.155,0 -7.321,3.049 -7.321,8.221 0,5.405 3.311,8.454 7.553,8.454 4.387,0 7.263,-3.311 7.263,-8.221" /></g><path
           id="path130"
           style="fill:#ff0000;fill-opacity:1;fill-rule:nonzero;stroke:none"
           d="m 850.881,406 h -3.37 v 23.301 h 3.37 z" /><path
           id="path132"
           style="fill:#ff0000;fill-opacity:1;fill-rule:nonzero;stroke:none"
           d="m 860.004,406 h -3.37 v 16.037 h 3.37 z m -1.685,18.478 c -1.162,0 -1.947,0.872 -1.947,1.946 0,1.133 0.814,1.975 1.976,1.975 1.162,0 1.947,-0.842 1.947,-1.975 0,-1.074 -0.756,-1.946 -1.976,-1.946" /><g
           transform="translate(866.2217,422.0078)"
           id="g134"><path
             id="path136"
             style="fill:#ff0000;fill-opacity:1;fill-rule:nonzero;stroke:none"
             d="m 0,0 c 0,1.743 0,4.329 1.802,6.131 1.103,1.074 2.586,1.481 3.892,1.481 1.046,0 1.86,-0.204 2.441,-0.436 L 7.786,4.591 C 7.351,4.765 6.856,4.91 6.072,4.91 3.98,4.91 3.342,3.021 3.342,0.872 V 0 H 6.856 V -2.527 H 3.37 V -16.008 H 0 V -2.527 H -2.149 V 0 Z" /></g><g
           transform="translate(886.2109,415.6455)"
           id="g138"><path
             id="path140"
             style="fill:#ff0000;fill-opacity:1;fill-rule:nonzero;stroke:none"
             d="m 0,0 c 0.029,1.917 -0.756,4.3 -3.341,4.3 -2.47,0 -3.515,-2.441 -3.69,-4.3 z m 2.382,-9.007 c -1.133,-0.522 -2.905,-0.958 -5.084,-0.958 -4.822,0 -7.611,3.225 -7.611,8.106 0,4.764 2.672,8.57 7.205,8.57 4.503,0 6.303,-3.747 6.303,-7.698 0,-0.553 -0.028,-1.018 -0.087,-1.424 H -7.06 c 0.087,-3.603 2.325,-4.969 4.852,-4.969 1.772,0 2.992,0.32 4.038,0.756 z" /></g></g></g></g></svg>
